# xmcd CD database file generated with xsadp 3.1.3
#
# Track frame offsets:
#       150
#       14875
#       31690
#
# Disc length: 616 seconds
#
# Revision: 1
# Processed by: cddbd v1.4b41PL1 Copyright (c) Steve Scherf et al.
# Submitted via: xsadp 3.1.3 - (C) 1998,1999 Michael Glickman 
#     sadp site: http://www.alphalink.com.au/~michg/ace/sadp
#
DISCID=1c026603
DTITLE=SYLVIA/ENVOL D'UNE VIE
DYEAR=1900
DGENRE=
TTITLE0=Assez joué
TTITLE1=Envol d'une vie
TTITLE2=Ombre de la nuit
EXTD=
EXTT0=
EXTT1=
EXTT2=
PLAYORDER=
